<svg xmlns="http://www.w3.org/2000/svg" viewBox="0 0 300 220" role="img" aria-label="Tule Resort logo">
  <defs>
    <linearGradient id="gold" x1="0" x2="1" y1="0" y2="1"><stop offset="0" stop-color="#F8D77A"/><stop offset="1" stop-color="#C9902F"/></linearGradient>
    <linearGradient id="teal" x1="0" x2="1"><stop offset="0" stop-color="#0B6673"/><stop offset="1" stop-color="#18A0A8"/></linearGradient>
  </defs>
  <rect width="300" height="220" rx="28" fill="#12282B"/>
  <circle cx="137" cy="91" r="73" fill="none" stroke="url(#gold)" stroke-width="5"/>
  <path d="M112 113c4-39 14-58 32-71 17 8 27 25 31 49-16-9-32-9-47 0-4 7-9 14-16 22Z" fill="url(#gold)"/>
  <path d="M139 111V59M139 70l-23-14M141 74l25-15M137 83l-28-4M144 89l27-9" fill="none" stroke="#F8D77A" stroke-width="4" stroke-linecap="round"/>
  <path d="M112 116h66l-33-21z" fill="url(#gold)"/>
  <path d="M124 116v24M154 116v24M124 140h46M145 116v24" fill="none" stroke="#F8D77A" stroke-width="4" stroke-linecap="round"/>
  <path d="M67 153c29-12 57-12 84 0 28 13 53 13 82-2" fill="none" stroke="url(#gold)" stroke-width="7" stroke-linecap="round"/>
  <path d="M55 169c34-14 64-14 91 0 31 16 59 14 99-4" fill="none" stroke="url(#teal)" stroke-width="8" stroke-linecap="round"/>
  <path d="M62 185c31-11 58-11 84 1 28 12 58 10 91-5" fill="none" stroke="#0D8792" stroke-width="6" stroke-linecap="round"/>
  <text x="150" y="210" text-anchor="middle" font-family="Georgia,serif" font-size="15" letter-spacing="5" fill="#F8D77A">TULE RESORT</text>
</svg>